<svg xmlns="http://www.w3.org/2000/svg" width="482" height="473" viewBox="0 0 482 473" fill="none"><path d="M172.605 220.606C174.587 218.64 177.116 217.315 179.861 216.806C182.607 216.296 185.442 216.625 187.998 217.749C188.271 217.87 188.566 217.936 188.865 217.944C189.164 217.951 189.462 217.9 189.741 217.792C190.02 217.685 190.275 217.523 190.492 217.317C190.708 217.111 190.882 216.864 191.004 216.591C191.125 216.317 191.191 216.023 191.199 215.724C191.206 215.425 191.155 215.127 191.047 214.848C190.94 214.569 190.778 214.314 190.572 214.097C190.366 213.88 190.119 213.706 189.846 213.585C185.924 211.842 181.517 211.525 177.387 212.691C173.257 213.856 169.666 216.43 167.234 219.966C164.803 223.502 163.686 227.777 164.076 232.051C164.466 236.324 166.34 240.326 169.371 243.363L172.593 240.139C170.011 237.544 168.563 234.031 168.565 230.37C168.567 226.709 170.02 223.199 172.605 220.606Z" fill="#2B3990"></path><path d="M189.948 224.985C189.818 225.115 189.664 225.218 189.494 225.288C189.324 225.358 189.142 225.395 188.958 225.395C188.774 225.395 188.593 225.358 188.423 225.288C188.253 225.218 188.099 225.115 187.969 224.985C187.707 224.722 187.56 224.365 187.56 223.994C187.56 223.623 187.707 223.266 187.969 223.003L195.877 215.098C196.006 214.968 196.161 214.865 196.33 214.795C196.5 214.724 196.682 214.688 196.866 214.688C197.05 214.688 197.232 214.724 197.401 214.795C197.571 214.865 197.725 214.968 197.855 215.098C198.117 215.361 198.265 215.717 198.265 216.089C198.265 216.46 198.117 216.816 197.855 217.079L189.948 224.985Z" fill="#414042"></path><path d="M195.355 243.235C197.902 240.691 199.645 237.456 200.368 233.93C201.091 230.404 200.762 226.744 199.422 223.404C199.196 222.842 198.757 222.394 198.201 222.156C197.645 221.919 197.017 221.912 196.456 222.137C195.895 222.363 195.446 222.802 195.209 223.358C194.971 223.914 194.965 224.542 195.19 225.103C196.373 228.059 196.5 231.333 195.549 234.371C194.598 237.41 192.627 240.027 189.97 241.78C187.312 243.534 184.131 244.316 180.963 243.996C177.796 243.675 174.836 242.271 172.584 240.02C172.584 240.02 172.584 240.02 172.584 240.006L169.35 243.223H169.362C172.81 246.666 177.483 248.601 182.356 248.603C187.229 248.606 191.904 246.675 195.355 243.235Z" fill="url(#paint0_linear_1493_8477)"></path><path d="M214.451 245.19H213.85C213.815 245.017 213.752 244.865 213.663 244.734C213.576 244.603 213.47 244.493 213.343 244.404C213.219 244.314 213.081 244.246 212.929 244.201C212.777 244.156 212.619 244.133 212.454 244.133C212.153 244.133 211.881 244.209 211.637 244.361C211.395 244.513 211.202 244.736 211.058 245.032C210.916 245.328 210.844 245.691 210.844 246.121C210.844 246.55 210.916 246.913 211.058 247.209C211.202 247.505 211.395 247.728 211.637 247.88C211.881 248.032 212.153 248.108 212.454 248.108C212.619 248.108 212.777 248.086 212.929 248.04C213.081 247.995 213.219 247.928 213.343 247.839C213.47 247.749 213.576 247.638 213.663 247.507C213.752 247.375 213.815 247.223 213.85 247.051H214.451C214.406 247.305 214.324 247.532 214.204 247.732C214.084 247.933 213.936 248.103 213.758 248.244C213.58 248.383 213.381 248.489 213.159 248.561C212.94 248.634 212.704 248.671 212.454 248.671C212.031 248.671 211.654 248.567 211.324 248.36C210.995 248.153 210.735 247.859 210.546 247.478C210.357 247.097 210.263 246.644 210.263 246.121C210.263 245.597 210.357 245.145 210.546 244.763C210.735 244.382 210.995 244.088 211.324 243.881C211.654 243.674 212.031 243.571 212.454 243.571C212.704 243.571 212.94 243.607 213.159 243.68C213.381 243.752 213.58 243.859 213.758 244C213.936 244.139 214.084 244.308 214.204 244.509C214.324 244.707 214.406 244.934 214.451 245.19Z" fill="#414042"></path><path d="M217.691 247.08V244.88H218.263V248.603H217.691V247.972H217.653C217.565 248.161 217.43 248.322 217.245 248.455C217.061 248.586 216.828 248.651 216.547 248.651C216.315 248.651 216.108 248.6 215.927 248.498C215.746 248.395 215.604 248.24 215.5 248.033C215.397 247.825 215.345 247.562 215.345 247.245V244.88H215.917V247.206C215.917 247.478 215.993 247.694 216.145 247.856C216.298 248.018 216.494 248.098 216.732 248.098C216.874 248.098 217.018 248.062 217.165 247.989C217.314 247.917 217.439 247.805 217.539 247.655C217.641 247.505 217.691 247.313 217.691 247.08Z" fill="#414042"></path><path d="M221.948 245.713L221.435 245.859C221.402 245.773 221.355 245.69 221.292 245.609C221.23 245.527 221.146 245.459 221.039 245.405C220.933 245.352 220.796 245.326 220.63 245.326C220.402 245.326 220.212 245.378 220.06 245.483C219.91 245.586 219.835 245.718 219.835 245.878C219.835 246.02 219.886 246.133 219.99 246.215C220.093 246.297 220.255 246.366 220.475 246.421L221.027 246.557C221.36 246.638 221.608 246.761 221.771 246.928C221.935 247.093 222.016 247.305 222.016 247.565C222.016 247.779 221.955 247.969 221.832 248.137C221.711 248.305 221.541 248.438 221.323 248.535C221.105 248.632 220.851 248.68 220.562 248.68C220.182 248.68 219.868 248.598 219.619 248.433C219.37 248.268 219.213 248.027 219.146 247.711L219.689 247.575C219.741 247.775 219.839 247.926 219.983 248.026C220.128 248.126 220.318 248.176 220.552 248.176C220.819 248.176 221.031 248.119 221.187 248.006C221.346 247.892 221.425 247.754 221.425 247.594C221.425 247.465 221.38 247.357 221.289 247.269C221.199 247.181 221.06 247.114 220.872 247.071L220.252 246.925C219.911 246.844 219.66 246.719 219.5 246.55C219.342 246.378 219.263 246.164 219.263 245.907C219.263 245.697 219.322 245.511 219.44 245.35C219.559 245.188 219.722 245.061 219.927 244.969C220.134 244.877 220.368 244.831 220.63 244.831C220.998 244.831 221.287 244.912 221.498 245.073C221.709 245.235 221.86 245.448 221.948 245.713Z" fill="#414042"></path><path d="M224.497 244.88V245.364H222.567V244.88H224.497ZM223.129 243.988H223.702V247.536C223.702 247.698 223.725 247.819 223.772 247.9C223.82 247.979 223.882 248.032 223.956 248.06C224.032 248.086 224.112 248.098 224.196 248.098C224.259 248.098 224.311 248.095 224.351 248.089C224.392 248.081 224.424 248.074 224.448 248.069L224.564 248.583C224.526 248.598 224.472 248.612 224.402 248.627C224.333 248.643 224.244 248.651 224.138 248.651C223.976 248.651 223.818 248.616 223.663 248.547C223.509 248.477 223.382 248.372 223.28 248.229C223.18 248.087 223.129 247.908 223.129 247.691V243.988Z" fill="#414042"></path><path d="M226.83 248.68C226.493 248.68 226.199 248.6 225.945 248.44C225.693 248.28 225.496 248.056 225.353 247.769C225.213 247.481 225.143 247.145 225.143 246.76C225.143 246.373 225.213 246.034 225.353 245.745C225.496 245.456 225.693 245.231 225.945 245.071C226.199 244.911 226.493 244.831 226.83 244.831C227.166 244.831 227.46 244.911 227.712 245.071C227.966 245.231 228.163 245.456 228.303 245.745C228.446 246.034 228.517 246.373 228.517 246.76C228.517 247.145 228.446 247.481 228.303 247.769C228.163 248.056 227.966 248.28 227.712 248.44C227.46 248.6 227.166 248.68 226.83 248.68ZM226.83 248.166C227.085 248.166 227.295 248.101 227.46 247.97C227.625 247.839 227.747 247.667 227.826 247.454C227.905 247.24 227.945 247.009 227.945 246.76C227.945 246.512 227.905 246.28 227.826 246.065C227.747 245.85 227.625 245.676 227.46 245.544C227.295 245.411 227.085 245.345 226.83 245.345C226.574 245.345 226.364 245.411 226.199 245.544C226.035 245.676 225.913 245.85 225.833 246.065C225.754 246.28 225.715 246.512 225.715 246.76C225.715 247.009 225.754 247.24 225.833 247.454C225.913 247.667 226.035 247.839 226.199 247.97C226.364 248.101 226.574 248.166 226.83 248.166Z" fill="#414042"></path><path d="M229.39 248.603V244.88H229.943V245.461H229.991C230.069 245.262 230.194 245.108 230.367 244.998C230.54 244.887 230.747 244.831 230.99 244.831C231.235 244.831 231.44 244.887 231.603 244.998C231.768 245.108 231.896 245.262 231.988 245.461H232.027C232.122 245.269 232.265 245.116 232.456 245.003C232.647 244.888 232.875 244.831 233.142 244.831C233.475 244.831 233.747 244.935 233.959 245.144C234.171 245.351 234.276 245.673 234.276 246.111V248.603H233.704V246.111C233.704 245.836 233.629 245.64 233.479 245.522C233.329 245.404 233.152 245.345 232.948 245.345C232.686 245.345 232.484 245.424 232.34 245.582C232.196 245.739 232.124 245.938 232.124 246.179V248.603H231.542V246.053C231.542 245.841 231.474 245.671 231.336 245.541C231.199 245.41 231.022 245.345 230.805 245.345C230.657 245.345 230.518 245.384 230.389 245.464C230.261 245.543 230.157 245.653 230.078 245.793C230.001 245.932 229.962 246.093 229.962 246.276V248.603H229.39Z" fill="#414042"></path><path d="M240.034 244.88C240.005 244.634 239.887 244.443 239.681 244.307C239.474 244.172 239.22 244.104 238.919 244.104C238.7 244.104 238.507 244.139 238.343 244.211C238.179 244.282 238.052 244.379 237.96 244.504C237.869 244.628 237.824 244.77 237.824 244.928C237.824 245.06 237.855 245.174 237.918 245.27C237.983 245.363 238.065 245.442 238.166 245.505C238.266 245.566 238.371 245.617 238.481 245.658C238.591 245.696 238.692 245.728 238.784 245.752L239.288 245.888C239.417 245.922 239.561 245.969 239.719 246.028C239.879 246.088 240.032 246.17 240.178 246.273C240.325 246.375 240.446 246.506 240.541 246.666C240.636 246.826 240.684 247.022 240.684 247.255C240.684 247.523 240.614 247.766 240.473 247.982C240.334 248.199 240.131 248.371 239.862 248.498C239.596 248.626 239.272 248.69 238.89 248.69C238.535 248.69 238.227 248.633 237.967 248.518C237.708 248.403 237.505 248.243 237.356 248.038C237.209 247.833 237.126 247.594 237.106 247.323H237.727C237.743 247.51 237.806 247.665 237.916 247.788C238.027 247.909 238.168 248 238.338 248.06C238.509 248.118 238.693 248.147 238.89 248.147C239.12 248.147 239.326 248.11 239.509 248.035C239.691 247.959 239.836 247.854 239.942 247.72C240.049 247.585 240.102 247.426 240.102 247.245C240.102 247.08 240.056 246.946 239.964 246.843C239.872 246.739 239.751 246.655 239.601 246.591C239.45 246.526 239.288 246.47 239.113 246.421L238.503 246.247C238.115 246.135 237.808 245.976 237.581 245.769C237.355 245.562 237.242 245.292 237.242 244.957C237.242 244.679 237.317 244.437 237.468 244.23C237.619 244.021 237.823 243.86 238.078 243.745C238.335 243.629 238.622 243.571 238.939 243.571C239.259 243.571 239.543 243.628 239.792 243.743C240.041 243.856 240.238 244.011 240.384 244.208C240.531 244.405 240.608 244.629 240.616 244.88H240.034Z" fill="#414042"></path><path d="M243.107 248.68C242.771 248.68 242.476 248.6 242.223 248.44C241.971 248.28 241.773 248.056 241.631 247.769C241.491 247.481 241.42 247.145 241.42 246.76C241.42 246.373 241.491 246.034 241.631 245.745C241.773 245.456 241.971 245.231 242.223 245.071C242.476 244.911 242.771 244.831 243.107 244.831C243.444 244.831 243.738 244.911 243.99 245.071C244.243 245.231 244.441 245.456 244.581 245.745C244.723 246.034 244.794 246.373 244.794 246.76C244.794 247.145 244.723 247.481 244.581 247.769C244.441 248.056 244.243 248.28 243.99 248.44C243.738 248.6 243.444 248.68 243.107 248.68ZM243.107 248.166C243.363 248.166 243.573 248.101 243.738 247.97C243.902 247.839 244.024 247.667 244.104 247.454C244.183 247.24 244.222 247.009 244.222 246.76C244.222 246.512 244.183 246.28 244.104 246.065C244.024 245.85 243.902 245.676 243.738 245.544C243.573 245.411 243.363 245.345 243.107 245.345C242.852 245.345 242.642 245.411 242.477 245.544C242.312 245.676 242.19 245.85 242.111 246.065C242.032 246.28 241.992 246.512 241.992 246.76C241.992 247.009 242.032 247.24 242.111 247.454C242.19 247.667 242.312 247.839 242.477 247.97C242.642 248.101 242.852 248.166 243.107 248.166Z" fill="#414042"></path><path d="M247.326 244.88V245.364H245.319V244.88H247.326ZM245.92 248.603V244.366C245.92 244.152 245.97 243.975 246.07 243.832C246.17 243.69 246.3 243.584 246.46 243.512C246.62 243.441 246.789 243.406 246.967 243.406C247.107 243.406 247.222 243.417 247.311 243.44C247.4 243.462 247.466 243.483 247.51 243.503L247.345 243.997C247.316 243.988 247.276 243.975 247.224 243.961C247.174 243.946 247.107 243.939 247.025 243.939C246.836 243.939 246.699 243.987 246.615 244.082C246.533 244.177 246.492 244.317 246.492 244.501V248.603H245.92Z" fill="#414042"></path><path d="M249.747 244.88V245.364H247.817V244.88H249.747ZM248.379 243.988H248.951V247.536C248.951 247.698 248.975 247.819 249.022 247.9C249.07 247.979 249.132 248.032 249.206 248.06C249.282 248.086 249.362 248.098 249.446 248.098C249.509 248.098 249.561 248.095 249.601 248.089C249.641 248.081 249.674 248.074 249.698 248.069L249.814 248.583C249.776 248.598 249.721 248.612 249.652 248.627C249.583 248.643 249.494 248.651 249.388 248.651C249.226 248.651 249.068 248.616 248.913 248.547C248.759 248.477 248.632 248.372 248.53 248.229C248.43 248.087 248.379 247.908 248.379 247.691V243.988Z" fill="#414042"></path><path d="M251.451 248.603L250.316 244.88H250.917L251.722 247.73H251.761L252.556 244.88H253.167L253.952 247.72H253.991L254.796 244.88H255.397L254.262 248.603H253.7L252.886 245.742H252.827L252.013 248.603H251.451Z" fill="#414042"></path><path d="M257.249 248.69C257.013 248.69 256.799 248.645 256.606 248.557C256.414 248.466 256.261 248.336 256.148 248.166C256.035 247.995 255.978 247.788 255.978 247.546C255.978 247.333 256.02 247.16 256.104 247.027C256.189 246.893 256.301 246.788 256.441 246.712C256.582 246.636 256.737 246.579 256.907 246.542C257.078 246.504 257.25 246.473 257.423 246.45C257.649 246.421 257.833 246.399 257.973 246.385C258.116 246.369 258.219 246.342 258.284 246.305C258.35 246.268 258.383 246.203 258.383 246.111V246.091C258.383 245.852 258.318 245.666 258.187 245.534C258.057 245.401 257.861 245.335 257.598 245.335C257.325 245.335 257.11 245.395 256.955 245.515C256.8 245.634 256.691 245.762 256.628 245.898L256.085 245.704C256.182 245.477 256.311 245.301 256.473 245.175C256.636 245.048 256.814 244.959 257.006 244.909C257.2 244.857 257.391 244.831 257.578 244.831C257.698 244.831 257.835 244.846 257.99 244.875C258.147 244.902 258.298 244.959 258.444 245.047C258.591 245.134 258.713 245.266 258.81 245.442C258.907 245.618 258.955 245.854 258.955 246.15V248.603H258.383V248.098H258.354C258.315 248.179 258.25 248.266 258.16 248.358C258.069 248.45 257.949 248.528 257.799 248.593C257.649 248.658 257.465 248.69 257.249 248.69ZM257.336 248.176C257.562 248.176 257.753 248.132 257.908 248.043C258.065 247.954 258.183 247.839 258.262 247.699C258.343 247.558 258.383 247.41 258.383 247.255V246.731C258.359 246.76 258.305 246.787 258.223 246.811C258.142 246.834 258.048 246.854 257.942 246.872C257.837 246.888 257.734 246.903 257.634 246.916C257.535 246.927 257.455 246.937 257.394 246.945C257.245 246.964 257.106 246.996 256.977 247.039C256.849 247.081 256.746 247.145 256.667 247.231C256.589 247.315 256.55 247.429 256.55 247.575C256.55 247.774 256.624 247.924 256.771 248.026C256.92 248.126 257.108 248.176 257.336 248.176Z" fill="#414042"></path><path d="M259.999 248.603V244.88H260.552V245.442H260.591C260.658 245.258 260.781 245.108 260.959 244.993C261.137 244.879 261.337 244.821 261.56 244.821C261.602 244.821 261.655 244.822 261.718 244.824C261.781 244.825 261.828 244.828 261.861 244.831V245.413C261.841 245.408 261.797 245.401 261.727 245.391C261.659 245.38 261.588 245.374 261.512 245.374C261.331 245.374 261.169 245.412 261.027 245.488C260.886 245.562 260.775 245.666 260.692 245.798C260.612 245.929 260.571 246.079 260.571 246.247V248.603H259.999Z" fill="#414042"></path><path d="M263.986 248.68C263.628 248.68 263.318 248.601 263.058 248.443C262.8 248.283 262.6 248.06 262.459 247.774C262.32 247.486 262.251 247.152 262.251 246.77C262.251 246.389 262.32 246.053 262.459 245.762C262.6 245.469 262.796 245.241 263.046 245.078C263.298 244.913 263.592 244.831 263.928 244.831C264.122 244.831 264.314 244.863 264.503 244.928C264.692 244.993 264.864 245.098 265.019 245.243C265.174 245.387 265.298 245.578 265.39 245.815C265.482 246.053 265.528 246.345 265.528 246.693V246.935H262.658V246.441H264.946C264.946 246.23 264.904 246.043 264.82 245.878C264.738 245.713 264.62 245.583 264.466 245.488C264.314 245.393 264.135 245.345 263.928 245.345C263.7 245.345 263.503 245.401 263.337 245.515C263.172 245.626 263.045 245.772 262.956 245.951C262.867 246.13 262.823 246.323 262.823 246.528V246.857C262.823 247.139 262.871 247.377 262.968 247.572C263.067 247.766 263.204 247.914 263.378 248.016C263.553 248.116 263.755 248.166 263.986 248.166C264.137 248.166 264.272 248.145 264.394 248.103C264.516 248.06 264.622 247.995 264.711 247.909C264.8 247.822 264.869 247.714 264.917 247.585L265.47 247.74C265.412 247.927 265.314 248.092 265.177 248.234C265.039 248.375 264.87 248.485 264.668 248.564C264.466 248.641 264.239 248.68 263.986 248.68Z" fill="#414042"></path><path d="M269.927 248.603H268.396V243.638H269.995C270.477 243.638 270.889 243.738 271.232 243.937C271.574 244.134 271.837 244.417 272.019 244.787C272.202 245.156 272.293 245.597 272.293 246.111C272.293 246.628 272.201 247.073 272.017 247.446C271.833 247.818 271.564 248.104 271.212 248.305C270.86 248.503 270.432 248.603 269.927 248.603ZM268.997 248.069H269.889C270.299 248.069 270.639 247.99 270.909 247.832C271.179 247.673 271.38 247.448 271.513 247.156C271.645 246.863 271.711 246.515 271.711 246.111C271.711 245.71 271.646 245.365 271.515 245.076C271.384 244.785 271.189 244.562 270.929 244.407C270.668 244.25 270.344 244.172 269.957 244.172H268.997V248.069Z" fill="#414042"></path><path d="M274.785 248.68C274.426 248.68 274.117 248.601 273.857 248.443C273.598 248.283 273.399 248.06 273.258 247.774C273.119 247.486 273.049 247.152 273.049 246.77C273.049 246.389 273.119 246.053 273.258 245.762C273.399 245.469 273.594 245.241 273.845 245.078C274.097 244.913 274.391 244.831 274.727 244.831C274.921 244.831 275.112 244.863 275.301 244.928C275.49 244.993 275.662 245.098 275.818 245.243C275.973 245.387 276.096 245.578 276.188 245.815C276.281 246.053 276.327 246.345 276.327 246.693V246.935H273.457V246.441H275.745C275.745 246.23 275.703 246.043 275.619 245.878C275.536 245.713 275.418 245.583 275.265 245.488C275.113 245.393 274.934 245.345 274.727 245.345C274.499 245.345 274.302 245.401 274.135 245.515C273.971 245.626 273.844 245.772 273.755 245.951C273.666 246.13 273.622 246.323 273.622 246.528V246.857C273.622 247.139 273.67 247.377 273.767 247.572C273.866 247.766 274.002 247.914 274.177 248.016C274.351 248.116 274.554 248.166 274.785 248.166C274.935 248.166 275.071 248.145 275.192 248.103C275.315 248.06 275.421 247.995 275.51 247.909C275.599 247.822 275.667 247.714 275.716 247.585L276.268 247.74C276.21 247.927 276.113 248.092 275.975 248.234C275.838 248.375 275.668 248.485 275.466 248.564C275.264 248.641 275.037 248.68 274.785 248.68Z" fill="#414042"></path><path d="M280.128 244.88L278.751 248.603H278.169L276.793 244.88H277.413L278.441 247.846H278.48L279.507 244.88H280.128Z" fill="#414042"></path><path d="M282.311 248.68C281.952 248.68 281.642 248.601 281.382 248.443C281.124 248.283 280.924 248.06 280.784 247.774C280.645 247.486 280.575 247.152 280.575 246.77C280.575 246.389 280.645 246.053 280.784 245.762C280.924 245.469 281.12 245.241 281.37 245.078C281.622 244.913 281.916 244.831 282.253 244.831C282.446 244.831 282.638 244.863 282.827 244.928C283.016 244.993 283.188 245.098 283.343 245.243C283.498 245.387 283.622 245.578 283.714 245.815C283.806 246.053 283.852 246.345 283.852 246.693V246.935H280.982V246.441H283.271C283.271 246.23 283.229 246.043 283.145 245.878C283.062 245.713 282.944 245.583 282.791 245.488C282.639 245.393 282.459 245.345 282.253 245.345C282.025 245.345 281.828 245.401 281.661 245.515C281.496 245.626 281.369 245.772 281.281 245.951C281.192 246.13 281.147 246.323 281.147 246.528V246.857C281.147 247.139 281.196 247.377 281.293 247.572C281.391 247.766 281.528 247.914 281.702 248.016C281.877 248.116 282.08 248.166 282.311 248.166C282.461 248.166 282.597 248.145 282.718 248.103C282.841 248.06 282.947 247.995 283.035 247.909C283.124 247.822 283.193 247.714 283.241 247.585L283.794 247.74C283.736 247.927 283.638 248.092 283.501 248.234C283.363 248.375 283.194 248.485 282.992 248.564C282.79 248.641 282.563 248.68 282.311 248.68Z" fill="#414042"></path><path d="M285.295 243.638V248.603H284.722V243.638H285.295Z" fill="#414042"></path><path d="M287.855 248.68C287.519 248.68 287.224 248.6 286.97 248.44C286.718 248.28 286.521 248.056 286.379 247.769C286.238 247.481 286.168 247.145 286.168 246.76C286.168 246.373 286.238 246.034 286.379 245.745C286.521 245.456 286.718 245.231 286.97 245.071C287.224 244.911 287.519 244.831 287.855 244.831C288.191 244.831 288.485 244.911 288.737 245.071C288.991 245.231 289.188 245.456 289.329 245.745C289.471 246.034 289.542 246.373 289.542 246.76C289.542 247.145 289.471 247.481 289.329 247.769C289.188 248.056 288.991 248.28 288.737 248.44C288.485 248.6 288.191 248.68 287.855 248.68ZM287.855 248.166C288.11 248.166 288.32 248.101 288.485 247.97C288.65 247.839 288.772 247.667 288.851 247.454C288.93 247.24 288.97 247.009 288.97 246.76C288.97 246.512 288.93 246.28 288.851 246.065C288.772 245.85 288.65 245.676 288.485 245.544C288.32 245.411 288.11 245.345 287.855 245.345C287.599 245.345 287.389 245.411 287.225 245.544C287.06 245.676 286.938 245.85 286.859 246.065C286.779 246.28 286.74 246.512 286.74 246.76C286.74 247.009 286.779 247.24 286.859 247.454C286.938 247.667 287.06 247.839 287.225 247.97C287.389 248.101 287.599 248.166 287.855 248.166Z" fill="#414042"></path><path d="M290.415 249.999V244.88H290.968V245.471H291.036C291.078 245.406 291.136 245.324 291.21 245.224C291.286 245.122 291.394 245.031 291.535 244.952C291.677 244.871 291.869 244.831 292.112 244.831C292.425 244.831 292.702 244.909 292.941 245.066C293.18 245.223 293.367 245.445 293.501 245.733C293.635 246.02 293.702 246.36 293.702 246.751C293.702 247.145 293.635 247.487 293.501 247.776C293.367 248.064 293.181 248.287 292.943 248.445C292.706 248.602 292.432 248.68 292.121 248.68C291.882 248.68 291.691 248.641 291.547 248.561C291.403 248.481 291.293 248.389 291.215 248.288C291.137 248.184 291.078 248.098 291.036 248.031H290.987V249.999H290.415ZM290.977 246.741C290.977 247.022 291.019 247.27 291.101 247.485C291.183 247.699 291.304 247.866 291.462 247.987C291.621 248.107 291.814 248.166 292.044 248.166C292.283 248.166 292.483 248.103 292.643 247.977C292.804 247.85 292.925 247.678 293.006 247.463C293.089 247.247 293.13 247.006 293.13 246.741C293.13 246.479 293.089 246.243 293.009 246.033C292.929 245.822 292.809 245.654 292.647 245.532C292.488 245.407 292.286 245.345 292.044 245.345C291.811 245.345 291.616 245.404 291.457 245.522C291.299 245.638 291.179 245.801 291.099 246.011C291.018 246.22 290.977 246.463 290.977 246.741Z" fill="#414042"></path><path d="M294.575 248.603V244.88H295.127V245.461H295.176C295.253 245.262 295.378 245.108 295.551 244.998C295.724 244.887 295.932 244.831 296.174 244.831C296.42 244.831 296.624 244.887 296.788 244.998C296.952 245.108 297.081 245.262 297.173 245.461H297.212C297.307 245.269 297.45 245.116 297.641 245.003C297.831 244.888 298.06 244.831 298.327 244.831C298.66 244.831 298.932 244.935 299.144 245.144C299.355 245.351 299.461 245.673 299.461 246.111V248.603H298.889V246.111C298.889 245.836 298.814 245.64 298.664 245.522C298.513 245.404 298.336 245.345 298.133 245.345C297.871 245.345 297.668 245.424 297.524 245.582C297.381 245.739 297.309 245.938 297.309 246.179V248.603H296.727V246.053C296.727 245.841 296.658 245.671 296.521 245.541C296.384 245.41 296.207 245.345 295.99 245.345C295.841 245.345 295.702 245.384 295.573 245.464C295.446 245.543 295.342 245.653 295.263 245.793C295.185 245.932 295.147 246.093 295.147 246.276V248.603H294.575Z" fill="#414042"></path><path d="M302.068 248.68C301.709 248.68 301.4 248.601 301.14 248.443C300.881 248.283 300.682 248.06 300.541 247.774C300.402 247.486 300.333 247.152 300.333 246.77C300.333 246.389 300.402 246.053 300.541 245.762C300.682 245.469 300.877 245.241 301.128 245.078C301.38 244.913 301.674 244.831 302.01 244.831C302.204 244.831 302.395 244.863 302.584 244.928C302.773 244.993 302.946 245.098 303.101 245.243C303.256 245.387 303.379 245.578 303.472 245.815C303.564 246.053 303.61 246.345 303.61 246.693V246.935H300.74V246.441H303.028C303.028 246.23 302.986 246.043 302.902 245.878C302.819 245.713 302.702 245.583 302.548 245.488C302.396 245.393 302.217 245.345 302.01 245.345C301.782 245.345 301.585 245.401 301.418 245.515C301.254 245.626 301.127 245.772 301.038 245.951C300.949 246.13 300.905 246.323 300.905 246.528V246.857C300.905 247.139 300.953 247.377 301.05 247.572C301.149 247.766 301.285 247.914 301.46 248.016C301.634 248.116 301.837 248.166 302.068 248.166C302.218 248.166 302.354 248.145 302.475 248.103C302.598 248.06 302.704 247.995 302.793 247.909C302.882 247.822 302.95 247.714 302.999 247.585L303.551 247.74C303.493 247.927 303.396 248.092 303.258 248.234C303.121 248.375 302.951 248.485 302.749 248.564C302.547 248.641 302.32 248.68 302.068 248.68Z" fill="#414042"></path><path d="M305.052 246.363V248.603H304.48V244.88H305.033V245.461H305.081C305.168 245.272 305.301 245.12 305.479 245.006C305.656 244.889 305.886 244.831 306.167 244.831C306.419 244.831 306.64 244.883 306.829 244.986C307.018 245.088 307.165 245.243 307.27 245.452C307.375 245.658 307.427 245.92 307.427 246.237V248.603H306.855V246.276C306.855 245.983 306.779 245.755 306.627 245.592C306.476 245.427 306.267 245.345 306.002 245.345C305.819 245.345 305.656 245.384 305.512 245.464C305.37 245.543 305.258 245.658 305.176 245.81C305.093 245.962 305.052 246.146 305.052 246.363Z" fill="#414042"></path><path d="M310.092 244.88V245.364H308.162V244.88H310.092ZM308.725 243.988H309.297V247.536C309.297 247.698 309.32 247.819 309.367 247.9C309.416 247.979 309.477 248.032 309.551 248.06C309.627 248.086 309.707 248.098 309.791 248.098C309.854 248.098 309.906 248.095 309.946 248.089C309.987 248.081 310.019 248.074 310.043 248.069L310.16 248.583C310.121 248.598 310.067 248.612 309.997 248.627C309.928 248.643 309.84 248.651 309.733 248.651C309.572 248.651 309.413 248.616 309.258 248.547C309.104 248.477 308.977 248.372 308.875 248.229C308.775 248.087 308.725 247.908 308.725 247.691V243.988Z" fill="#414042"></path><path d="M219.127 232.433C219.133 232.075 219.073 231.718 218.948 231.382C218.807 231.055 218.586 230.768 218.304 230.549C217.926 230.255 217.508 230.016 217.063 229.838C216.416 229.573 215.754 229.345 215.08 229.156C214.3 228.936 213.538 228.661 212.798 228.333C212.172 228.059 211.587 227.701 211.059 227.269C210.601 226.894 210.225 226.428 209.957 225.9C209.692 225.351 209.56 224.747 209.571 224.137C209.566 223.501 209.708 222.872 209.986 222.299C210.267 221.731 210.667 221.23 211.159 220.83C211.7 220.396 212.318 220.067 212.98 219.859C213.745 219.617 214.544 219.499 215.347 219.51C216.219 219.496 217.085 219.644 217.904 219.944C218.599 220.202 219.238 220.59 219.788 221.088C220.279 221.544 220.671 222.097 220.938 222.711C221.206 223.326 221.344 223.989 221.344 224.659H219.084C219.089 224.21 219.011 223.763 218.855 223.341C218.708 222.942 218.47 222.582 218.161 222.29C217.826 221.98 217.429 221.745 216.996 221.602C216.46 221.429 215.9 221.347 215.337 221.36C214.809 221.351 214.281 221.421 213.774 221.568C213.374 221.686 213.001 221.883 212.679 222.146C212.398 222.381 212.177 222.679 212.035 223.016C211.894 223.364 211.823 223.737 211.826 224.113C211.823 224.45 211.901 224.783 212.052 225.084C212.226 225.404 212.467 225.684 212.759 225.902C213.136 226.186 213.55 226.417 213.99 226.589C214.578 226.829 215.18 227.032 215.794 227.196C216.649 227.43 217.483 227.733 218.29 228.102C218.92 228.387 219.504 228.766 220.021 229.226C220.456 229.619 220.803 230.101 221.038 230.639C221.267 231.201 221.381 231.804 221.371 232.412C221.386 233.052 221.248 233.687 220.968 234.263C220.688 234.839 220.275 235.341 219.763 235.726C219.203 236.143 218.57 236.454 217.896 236.641C216.594 236.998 215.228 237.058 213.9 236.816C213.387 236.721 212.885 236.574 212.402 236.379C211.932 236.188 211.485 235.944 211.071 235.65C210.669 235.369 210.309 235.031 210.003 234.648C209.697 234.261 209.457 233.827 209.292 233.363C209.116 232.861 209.029 232.332 209.034 231.8H211.287C211.268 232.294 211.374 232.785 211.595 233.228C211.816 233.671 212.146 234.05 212.552 234.332C212.956 234.612 213.406 234.816 213.883 234.934C214.4 235.063 214.931 235.127 215.464 235.126C216.647 235.126 217.553 234.883 218.183 234.398C218.487 234.171 218.732 233.874 218.896 233.532C219.061 233.19 219.14 232.813 219.127 232.433Z" fill="#414042"></path><path d="M234.574 230.554C234.581 231.419 234.472 232.281 234.248 233.116C234.055 233.844 233.733 234.531 233.296 235.146C232.89 235.721 232.347 236.187 231.718 236.503C231.088 236.82 230.391 236.976 229.686 236.959C228.974 236.974 228.266 236.848 227.603 236.588C227.017 236.344 226.493 235.974 226.069 235.502V241.572H223.91V224.091H225.882L225.988 225.492C226.404 224.972 226.935 224.556 227.54 224.278C228.205 223.985 228.926 223.842 229.652 223.858C230.381 223.844 231.103 224.004 231.757 224.324C232.368 224.635 232.898 225.085 233.304 225.638C233.746 226.248 234.068 226.937 234.253 227.668C234.475 228.526 234.583 229.41 234.574 230.297V230.554ZM232.415 230.312C232.419 229.714 232.353 229.117 232.218 228.534C232.099 228.016 231.89 227.523 231.599 227.078C231.329 226.667 230.965 226.326 230.538 226.082C230.07 225.826 229.542 225.699 229.009 225.713C228.672 225.71 228.336 225.753 228.011 225.842C227.446 225.997 226.939 226.315 226.554 226.757C226.369 226.972 226.207 227.204 226.069 227.451V233.482C226.207 233.73 226.369 233.964 226.554 234.179C226.74 234.392 226.956 234.576 227.195 234.725C227.449 234.884 227.725 235.004 228.013 235.082C228.344 235.171 228.686 235.215 229.028 235.211C229.556 235.226 230.078 235.096 230.538 234.837C230.963 234.588 231.324 234.245 231.595 233.834C231.887 233.383 232.096 232.883 232.214 232.358C232.347 231.77 232.413 231.169 232.41 230.566L232.415 230.312Z" fill="#414042"></path><path d="M243.418 226.041C243.231 226.009 243.058 225.987 242.898 225.975C242.738 225.963 242.558 225.958 242.357 225.958C241.713 225.928 241.075 226.097 240.531 226.444C240.058 226.771 239.691 227.23 239.475 227.762V236.721H237.316V224.096H239.417L239.451 225.553C239.759 225.052 240.178 224.629 240.677 224.317C241.217 224 241.835 223.843 242.461 223.863C242.641 223.865 242.821 223.882 242.998 223.914C243.142 223.934 243.283 223.971 243.418 224.026V226.041Z" fill="#414042"></path><path d="M245.414 220.755C245.404 220.43 245.518 220.113 245.734 219.869C245.856 219.743 246.004 219.645 246.169 219.582C246.333 219.52 246.508 219.494 246.684 219.507C246.86 219.494 247.037 219.52 247.202 219.582C247.367 219.645 247.517 219.743 247.64 219.869C247.859 220.111 247.977 220.429 247.968 220.755C247.978 221.078 247.86 221.392 247.64 221.629C247.514 221.752 247.364 221.846 247.199 221.907C247.034 221.967 246.859 221.991 246.684 221.979C246.518 221.995 246.35 221.975 246.192 221.921C246.035 221.867 245.891 221.779 245.77 221.663C245.649 221.548 245.555 221.408 245.494 221.253C245.432 221.098 245.405 220.932 245.414 220.765V220.755ZM247.747 236.726H245.589V224.101H247.747V236.726Z" fill="#414042"></path><path d="M253.242 224.104L253.312 225.689C253.753 225.13 254.31 224.674 254.946 224.354C255.613 224.023 256.348 223.857 257.092 223.868C257.658 223.858 258.221 223.94 258.76 224.111C259.244 224.271 259.681 224.547 260.032 224.917C260.405 225.325 260.682 225.811 260.843 226.34C261.047 227.022 261.143 227.732 261.127 228.445V236.717H258.971V228.442C258.98 228.018 258.924 227.595 258.806 227.187C258.714 226.871 258.548 226.581 258.321 226.342C258.101 226.116 257.828 225.949 257.527 225.856C257.174 225.749 256.806 225.698 256.437 225.704C255.778 225.691 255.132 225.887 254.591 226.264C254.061 226.641 253.636 227.146 253.356 227.733V236.729H251.197V224.104H253.242Z" fill="#414042"></path><path d="M267.311 221.046V224.103H269.669V225.771H267.311V233.599C267.302 233.867 267.341 234.134 267.428 234.388C267.49 234.565 267.597 234.723 267.738 234.847C267.864 234.956 268.017 235.031 268.18 235.063C268.351 235.099 268.525 235.117 268.7 235.116C268.89 235.116 269.079 235.098 269.266 235.063C269.465 235.029 269.618 235 269.727 234.975V236.726C269.555 236.774 269.334 236.823 269.062 236.879C268.734 236.937 268.401 236.964 268.069 236.959C267.688 236.961 267.308 236.905 266.944 236.791C266.594 236.68 266.276 236.486 266.017 236.226C265.732 235.928 265.516 235.57 265.386 235.179C265.214 234.667 265.132 234.129 265.143 233.589V225.771H262.844V224.103H265.143V221.046H267.311Z" fill="#414042"></path><path d="M277.429 236.959C276.611 236.972 275.799 236.817 275.042 236.505C274.355 236.216 273.736 235.785 273.226 235.24C272.708 234.68 272.31 234.019 272.058 233.298C271.779 232.519 271.637 231.698 271.641 230.87V230.385C271.625 229.446 271.782 228.513 272.102 227.631C272.375 226.877 272.793 226.183 273.333 225.589C273.827 225.052 274.426 224.621 275.093 224.325C275.744 224.036 276.448 223.887 277.159 223.887C277.963 223.867 278.76 224.028 279.493 224.358C280.126 224.659 280.68 225.105 281.11 225.66C281.548 226.245 281.866 226.911 282.047 227.619C282.256 228.423 282.358 229.251 282.35 230.081V231.052H273.799C273.809 231.608 273.906 232.16 274.086 232.686C274.248 233.169 274.501 233.617 274.831 234.005C275.166 234.394 275.583 234.705 276.052 234.915C276.522 235.125 277.031 235.229 277.545 235.219C278.223 235.241 278.895 235.079 279.488 234.75C280.026 234.432 280.498 234.012 280.876 233.514L282.195 234.541C281.984 234.867 281.74 235.17 281.466 235.444C281.166 235.748 280.827 236.011 280.459 236.229C280.043 236.469 279.597 236.653 279.133 236.775C278.576 236.912 278.003 236.974 277.429 236.959ZM277.159 225.643C276.75 225.636 276.344 225.716 275.967 225.877C275.591 226.038 275.252 226.277 274.974 226.578C274.665 226.907 274.418 227.291 274.246 227.709C274.043 228.205 273.912 228.727 273.855 229.26H280.167V229.098C280.145 228.675 280.077 228.255 279.964 227.847C279.858 227.449 279.68 227.074 279.439 226.74C279.198 226.41 278.885 226.139 278.524 225.946C278.1 225.736 277.632 225.632 277.159 225.643Z" fill="#414042"></path><path d="M290.949 226.041C290.762 226.01 290.59 225.988 290.429 225.976C290.269 225.963 290.09 225.959 289.888 225.959C289.244 225.928 288.606 226.098 288.062 226.444C287.589 226.772 287.222 227.23 287.006 227.763V236.722H284.848V224.096H286.948L286.982 225.553C287.29 225.052 287.71 224.63 288.208 224.317C288.912 223.918 289.732 223.776 290.529 223.914C290.673 223.934 290.814 223.972 290.949 224.026V226.041Z" fill="#414042"></path><path d="M299.034 226.041C298.847 226.009 298.675 225.987 298.514 225.975C298.354 225.963 298.174 225.958 297.973 225.958C297.328 225.928 296.69 226.098 296.145 226.444C295.673 226.772 295.307 227.23 295.091 227.762V236.721H292.933V224.096H295.033L295.067 225.553C295.372 225.053 295.787 224.631 296.281 224.317C296.821 224.001 297.439 223.843 298.065 223.863C298.245 223.865 298.425 223.882 298.602 223.914C298.746 223.934 298.887 223.971 299.022 224.026L299.034 226.041Z" fill="#414042"></path><path d="M308.346 236.726C308.258 236.539 308.195 236.342 308.159 236.139C308.113 235.896 308.072 235.653 308.043 235.398C307.83 235.615 307.602 235.815 307.36 235.998C307.101 236.192 306.823 236.36 306.53 236.498C306.22 236.647 305.894 236.761 305.559 236.838C305.196 236.921 304.824 236.962 304.452 236.959C303.853 236.967 303.258 236.868 302.694 236.668C302.201 236.492 301.746 236.223 301.354 235.876C300.988 235.546 300.696 235.142 300.497 234.692C300.294 234.233 300.19 233.736 300.193 233.235C300.18 232.614 300.316 232 300.589 231.443C300.856 230.922 301.247 230.475 301.728 230.142C302.27 229.77 302.877 229.501 303.517 229.35C304.285 229.163 305.072 229.072 305.862 229.081H308.009V228.088C308.025 227.757 307.973 227.427 307.857 227.117C307.741 226.807 307.563 226.525 307.334 226.286C306.882 225.839 306.217 225.616 305.338 225.616C304.962 225.611 304.587 225.666 304.228 225.779C303.92 225.875 303.63 226.023 303.371 226.216C303.145 226.387 302.956 226.604 302.818 226.852C302.687 227.083 302.619 227.344 302.619 227.609H300.448C300.453 227.14 300.576 226.679 300.805 226.269C301.058 225.806 301.401 225.399 301.815 225.072C302.289 224.697 302.823 224.405 303.396 224.21C304.061 223.98 304.762 223.867 305.467 223.878C306.108 223.872 306.747 223.96 307.363 224.14C307.908 224.297 308.415 224.568 308.849 224.934C309.269 225.296 309.601 225.748 309.82 226.257C310.064 226.844 310.183 227.476 310.17 228.112V233.98C310.171 234.432 310.208 234.882 310.281 235.328C310.34 235.745 310.452 236.153 310.614 236.542V236.729L308.346 236.726ZM304.765 235.082C305.136 235.085 305.506 235.029 305.86 234.917C306.188 234.816 306.501 234.674 306.792 234.492C307.062 234.327 307.307 234.125 307.521 233.893C307.716 233.684 307.88 233.448 308.006 233.191V230.601H306.21C304.973 230.601 304.02 230.793 303.352 231.178C303.037 231.345 302.775 231.597 302.598 231.906C302.42 232.215 302.334 232.568 302.349 232.924C302.347 233.214 302.398 233.502 302.5 233.774C302.599 234.035 302.757 234.269 302.961 234.458C303.182 234.657 303.439 234.812 303.719 234.912C304.055 235.031 304.409 235.088 304.765 235.082Z" fill="#414042"></path><path d="M349.5 230.5C349.5 291.801 299.582 341.5 238 341.5C176.418 341.5 126.5 291.801 126.5 230.5C126.5 169.198 176.418 119.5 238 119.5C299.582 119.5 349.5 169.198 349.5 230.5Z" stroke="#38AAF1"></path><circle cx="238" cy="231" r="139.5" stroke="#38AAF1"></circle><circle cx="237.916" cy="230.628" r="167.309" stroke="#38AAF1"></circle><circle cx="237.915" cy="230.628" r="195.512" stroke="#38AAF1"></circle><circle cx="237.914" cy="230.628" r="222.681" stroke="#38AAF1"></circle><path fill-rule="evenodd" clip-rule="evenodd" d="M23.7818 182.587C19.2243 182.587 15.5297 186.164 15.5297 190.577V196.109H29.8122V197.645H9.18184C4.6243 197.645 0.929688 201.223 0.929688 205.636L0.929688 217.621C0.929688 222.034 4.6243 225.611 9.18184 225.611H13.9427V218.85C13.9427 214.437 17.6373 210.86 22.1949 210.86H37.4296C41.286 210.86 44.4122 207.833 44.4122 204.099V190.577C44.4122 186.164 40.7176 182.587 36.16 182.587H23.7818ZM21.8775 192.421C23.4551 192.421 24.734 191.183 24.734 189.655C24.734 188.128 23.4551 186.889 21.8775 186.889C20.2999 186.889 19.0209 188.128 19.0209 189.655C19.0209 191.183 20.2999 192.421 21.8775 192.421Z" fill="url(#paint1_linear_1493_8477)"></path><path fill-rule="evenodd" clip-rule="evenodd" d="M36.1616 240.67C40.7192 240.67 44.4138 237.092 44.4138 232.679V227.148L30.1312 227.148L30.1312 225.611L50.7616 225.611C55.3191 225.611 59.0137 222.034 59.0137 217.621V205.636C59.0137 201.223 55.3191 197.646 50.7616 197.646L46.0007 197.646V204.406C46.0007 208.819 42.3061 212.397 37.7486 212.397L22.5138 212.397C18.6575 212.397 15.5313 215.424 15.5313 219.158L15.5313 232.679C15.5312 237.092 19.2259 240.67 23.7834 240.67H36.1616ZM38.066 230.835C36.4884 230.835 35.2095 232.074 35.2095 233.601C35.2095 235.129 36.4884 236.367 38.066 236.367C39.6436 236.367 40.9225 235.129 40.9225 233.601C40.9225 232.074 39.6436 230.835 38.066 230.835Z" fill="url(#paint2_linear_1493_8477)"></path><path fill-rule="evenodd" clip-rule="evenodd" d="M321.405 132.268L297.812 146.316L328.36 144.237L330.713 113.349L321.405 132.268Z" fill="url(#paint3_linear_1493_8477)"></path><path fill-rule="evenodd" clip-rule="evenodd" d="M328.414 144.216L325.788 126.044L318.637 135.514L328.414 144.216Z" fill="url(#paint4_linear_1493_8477)"></path><path fill-rule="evenodd" clip-rule="evenodd" d="M328.448 144.216L309.213 142.702L297.917 146.276L328.448 144.216Z" fill="url(#paint5_linear_1493_8477)"></path><path fill-rule="evenodd" clip-rule="evenodd" d="M297.943 146.281L302.748 130.495L292.174 132.762L297.943 146.281Z" fill="url(#paint6_linear_1493_8477)"></path><path fill-rule="evenodd" clip-rule="evenodd" d="M329.71 118.444L317.75 108.648L314.419 119.446L329.71 118.444Z" fill="url(#paint7_linear_1493_8477)"></path><path fill-rule="evenodd" clip-rule="evenodd" d="M324.12 105.155L317.086 109.053L312.647 105.103L324.12 105.155Z" fill="url(#paint8_linear_1493_8477)"></path><path fill-rule="evenodd" clip-rule="evenodd" d="M289.393 138.057L292.34 132.667L289.956 126.247L289.393 138.057Z" fill="url(#paint9_linear_1493_8477)"></path><path fill-rule="evenodd" clip-rule="evenodd" d="M289.796 126.044L292.194 132.866L302.616 130.521L314.514 119.433L317.872 108.738L312.585 104.994L303.596 108.368C300.764 111.009 295.268 116.235 295.07 116.334C294.874 116.434 291.441 122.94 289.796 126.044Z" fill="white"></path><path d="M302.689 130.455L314.517 119.433L314.522 119.416L318.634 135.566L302.689 130.455Z" fill="url(#paint10_linear_1493_8477)"></path><path fill-rule="evenodd" clip-rule="evenodd" d="M298.218 113.789C304.356 107.686 312.269 104.08 315.305 107.153C318.34 110.225 315.122 117.691 308.984 123.792C302.846 129.892 295.031 133.697 291.997 130.624C288.96 127.554 292.08 119.889 298.218 113.789Z" fill="url(#paint11_linear_1493_8477)"></path><path fill-rule="evenodd" clip-rule="evenodd" d="M297.944 146.274L302.712 130.438L318.546 135.539C312.821 140.922 306.454 145.473 297.944 146.274Z" fill="url(#paint12_linear_1493_8477)"></path><path fill-rule="evenodd" clip-rule="evenodd" d="M314.535 119.402L318.6 135.547C323.382 130.505 327.674 125.084 329.776 118.379L314.535 119.402Z" fill="url(#paint13_linear_1493_8477)"></path><path fill-rule="evenodd" clip-rule="evenodd" d="M329.737 118.461C331.363 113.538 331.739 106.475 324.068 105.164L317.773 108.65L329.737 118.461Z" fill="url(#paint14_linear_1493_8477)"></path><path fill-rule="evenodd" clip-rule="evenodd" d="M289.393 137.986C289.618 146.111 295.464 146.232 297.954 146.303L292.202 132.833L289.393 137.986Z" fill="#9E1209"></path><path fill-rule="evenodd" clip-rule="evenodd" d="M314.56 119.427C318.234 121.692 325.64 126.24 325.791 126.324C326.024 126.456 328.984 121.319 329.655 118.417L314.56 119.427Z" fill="url(#paint15_radial_1493_8477)"></path><path fill-rule="evenodd" clip-rule="evenodd" d="M302.705 130.438L309.079 142.769C312.847 140.719 315.798 138.222 318.501 135.547L302.705 130.438Z" fill="url(#paint16_radial_1493_8477)"></path><path fill-rule="evenodd" clip-rule="evenodd" d="M292.176 132.849L291.273 143.633C292.977 145.967 295.322 146.169 297.78 145.988C296.001 141.547 292.448 132.67 292.176 132.849Z" fill="url(#paint17_linear_1493_8477)"></path><path fill-rule="evenodd" clip-rule="evenodd" d="M317.738 108.677L330.4 110.459C329.724 107.588 327.649 105.735 324.112 105.155L317.738 108.677Z" fill="url(#paint18_linear_1493_8477)"></path><circle cx="178.485" cy="340.926" r="33.1771" fill="#8892BF"></circle><path d="M174.786 326.707H178.767L177.642 332.689H181.22C183.181 332.731 184.643 333.169 185.605 334.004C186.586 334.839 186.874 336.426 186.47 338.765L184.537 349.194H180.498L182.345 339.235C182.537 338.19 182.479 337.449 182.172 337.011C181.864 336.572 181.2 336.353 180.181 336.353L176.979 336.322L174.613 349.194H170.631L174.786 326.707Z" fill="white"></path><path fill-rule="evenodd" clip-rule="evenodd" d="M156.543 332.689H164.275C166.544 332.71 168.188 333.42 169.208 334.819C170.228 336.217 170.564 338.128 170.218 340.55C170.083 341.657 169.785 342.742 169.323 343.807C168.881 344.872 168.266 345.832 167.477 346.688C166.515 347.774 165.486 348.463 164.39 348.756C163.294 349.048 162.159 349.194 160.986 349.194H157.524L156.427 355.145H152.417L156.543 332.689ZM158.187 345.655L159.912 336.291H160.495C160.707 336.291 160.928 336.28 161.159 336.259C162.698 336.239 163.976 336.395 164.996 336.729C166.034 337.063 166.381 338.326 166.034 340.519C165.611 343.129 164.784 344.653 163.553 345.091C162.322 345.509 160.784 345.707 158.937 345.686H158.533C158.418 345.686 158.302 345.676 158.187 345.655Z" fill="white"></path><path fill-rule="evenodd" clip-rule="evenodd" d="M198.478 332.689H190.746L186.62 355.145H190.63L191.727 349.194H195.189C196.362 349.194 197.497 349.048 198.593 348.756C199.689 348.463 200.718 347.774 201.68 346.688C202.469 345.832 203.084 344.872 203.526 343.807C203.988 342.742 204.286 341.657 204.421 340.55C204.767 338.128 204.431 336.217 203.411 334.819C202.391 333.42 200.747 332.71 198.478 332.689ZM194.115 336.291L192.39 345.655C192.506 345.676 192.621 345.686 192.736 345.686H193.14C194.987 345.707 196.526 345.509 197.756 345.091C198.987 344.653 199.814 343.129 200.237 340.519C200.584 338.326 200.237 337.063 199.199 336.729C198.179 336.395 196.901 336.239 195.362 336.259C195.131 336.28 194.91 336.291 194.698 336.291H194.115Z" fill="white"></path><path d="M75.4929 344.71C88.5867 334.545 81.8666 327.935 81.8666 327.935C82.8666 338.443 71.0474 340.924 67.8792 348.146C65.7174 353.073 69.3596 357.388 75.4885 362.826C74.9467 361.621 74.111 360.451 73.265 359.266C70.3795 355.225 67.3736 351.016 75.4929 344.71Z" fill="#E76F00"></path><path d="M77.5832 365.055C77.5832 365.055 81.5225 361.877 78.4029 358.345C67.8279 346.362 89.9689 340.924 89.9689 340.924C76.4509 347.437 78.469 351.302 81.8666 355.998C85.5046 361.034 77.5832 365.055 77.5832 365.055Z" fill="#E76F00"></path><path d="M89.183 374.532C101.317 368.332 95.7068 362.373 91.7908 363.176C90.831 363.372 90.403 363.542 90.403 363.542C90.403 363.542 90.7593 362.994 91.4399 362.756C99.1869 360.078 105.145 370.655 88.9391 374.845C88.9391 374.845 89.1268 374.68 89.183 374.532Z" fill="#5382A1"></path><path d="M63.934 366.684C56.3419 365.687 68.0966 362.942 68.0966 362.942C68.0966 362.942 63.5318 362.639 57.9176 365.308C51.2791 368.465 74.3385 369.902 86.2751 366.814C87.5161 365.981 89.2315 365.259 89.2315 365.259C89.2315 365.259 84.3468 366.117 79.4822 366.52C73.5298 367.011 67.1396 367.106 63.934 366.684Z" fill="#5382A1"></path><path d="M66.8224 372.605C62.5888 372.174 65.3609 370.156 65.3609 370.156C54.4059 373.732 71.456 377.786 86.7639 373.385C85.1368 372.82 84.102 371.789 84.102 371.789C76.6206 373.206 72.2971 373.16 66.8224 372.605Z" fill="#5382A1"></path><path d="M68.6671 379.011C64.4366 378.533 66.9082 377.119 66.9082 377.119C56.9637 379.852 72.9569 385.497 85.6179 380.161C83.5441 379.368 82.0593 378.452 82.0593 378.452C76.4114 379.504 73.7921 379.586 68.6671 379.011Z" fill="#5382A1"></path><path d="M95.1486 382.27C95.1486 382.27 96.9776 383.752 93.1343 384.898C85.8263 387.075 62.7174 387.733 56.2979 384.985C53.9902 383.998 58.3177 382.628 59.679 382.34C61.0987 382.037 61.9099 382.094 61.9099 382.094C59.3436 380.316 45.3221 385.585 54.7877 387.094C80.6019 391.21 101.844 385.24 95.1486 382.27Z" fill="#5382A1"></path><path d="M99.2455 385.508C98.8219 390.927 80.9362 392.067 69.289 391.334C61.6907 390.855 60.1679 389.657 60.1456 389.64C67.4177 390.819 79.6785 391.033 89.6197 389.194C98.4313 387.562 99.2455 385.508 99.2455 385.508Z" fill="#5382A1"></path><path d="M382.254 412.858L378.279 363.171H425.979L422.004 412.858L402.129 418.821L382.254 412.858Z" fill="#1172B8"></path><path d="M422.004 367.147H402.129V415.84L418.029 410.872L422.004 367.147Z" fill="#33AADD"></path><path d="M409.085 391.99H389.21L388.216 385.034L404.116 380.065H388.216L387.223 374.103H418.029L417.035 381.059L404.116 386.028H416.041L414.054 404.909L402.129 408.884L390.204 404.909L389.21 394.972H395.173L396.166 399.94L402.129 401.928L408.091 399.94L409.085 391.99Z" fill="white"></path><path d="M429.954 203.678L425.979 153.991H473.679L469.704 203.678L449.829 209.641L429.954 203.678Z" fill="#E44D26"></path><path d="M469.704 157.967H449.829V206.66L465.729 201.691L469.704 157.967Z" fill="#F16529"></path><path d="M436.91 182.81L434.923 163.929H465.729L464.735 169.892H440.885L441.879 176.848H463.741L461.754 195.729L449.829 199.704L437.904 195.729L436.91 185.792H442.873L443.867 190.76L449.829 192.748L455.791 190.76L456.785 182.81H436.91Z" fill="white"></path><path d="M94.1502 50.5731C94.1502 47.7222 91.7666 45.4109 88.8259 45.4109C85.8856 45.4109 83.5017 47.7222 83.5017 50.5731C83.5017 53.4243 85.8856 55.7356 88.8259 55.7356C91.7666 55.7356 94.1502 53.4243 94.1502 50.5731Z" fill="#53C1DE"></path><path fill-rule="evenodd" clip-rule="evenodd" d="M106.118 40.989C107.242 36.5591 108.656 28.3442 103.673 25.5591C98.7143 22.7862 92.2612 28.0997 88.8536 31.2891C85.456 28.1314 78.8216 22.8407 73.8435 25.6346C68.8865 28.4169 70.4152 36.4955 71.5644 40.9532C66.9404 42.2267 59.0137 44.9694 59.0137 50.5731C59.0137 56.1609 66.9321 59.1449 71.5288 60.4171C70.3753 64.8995 68.9232 72.8628 73.8866 75.6388C78.8831 78.4322 85.497 73.2674 88.936 70.0431C92.3654 73.2512 98.7566 78.4499 103.717 75.6661C108.692 72.8735 107.396 64.7687 106.247 60.2851C110.703 59.0102 118.638 56.0912 118.638 50.5731C118.638 45.0232 110.669 42.2582 106.118 40.989ZM105.553 57.909C104.798 55.5928 103.78 53.1298 102.534 50.5854C103.723 48.1011 104.702 45.6698 105.436 43.3684C108.772 44.3063 116.091 46.4498 116.091 50.5731C116.091 54.735 109.068 56.8989 105.553 57.909ZM102.44 73.5288C98.7396 75.6057 93.2424 70.6343 90.7098 68.2716C92.3899 66.4899 94.0689 64.4186 95.7076 62.1185C98.5902 61.8706 101.313 61.465 103.783 60.9117C104.592 64.083 106.157 71.4424 102.44 73.5288ZM75.1592 73.4991C71.4582 71.43 73.1498 64.324 73.9984 61.0222C76.4406 61.5459 79.144 61.9228 82.0335 62.15C83.683 64.4006 85.4106 66.4694 87.1516 68.2811C85.0005 70.2986 78.8776 75.5778 75.1592 73.4991ZM61.5606 50.5731C61.5606 46.3955 68.836 44.2676 72.2484 43.3321C72.9947 45.6851 73.9734 48.1454 75.1545 50.6332C73.9581 53.1582 72.9654 55.6576 72.2123 58.0382C68.9584 57.1352 61.5606 54.7533 61.5606 50.5731ZM75.1197 27.772C78.8359 25.6863 84.602 30.7657 87.0688 33.0519C85.3367 34.8554 83.6249 36.9085 81.9897 39.1462C79.1855 39.3982 76.5011 39.8029 74.0333 40.3451C73.1074 36.7498 71.4075 29.8553 75.1197 27.772ZM97.5297 41.8305C99.4322 42.0634 101.255 42.3729 102.966 42.7518C102.453 44.3486 101.812 46.0182 101.058 47.7299C99.9646 45.7184 98.791 43.7475 97.5297 41.8305ZM88.8544 34.8167C90.0292 36.0507 91.2058 37.4287 92.3632 38.9236C90.0155 38.816 87.6639 38.8155 85.3161 38.9221C86.4745 37.441 87.6612 36.065 88.8544 34.8167ZM76.6158 47.7281C75.8741 46.0223 75.2395 44.3453 74.7212 42.7257C76.4224 42.3566 78.2366 42.0549 80.1267 41.8259C78.8619 43.7387 77.6903 45.7089 76.6158 47.7281ZM80.1811 59.4966C78.2284 59.2852 76.3868 58.9989 74.6861 58.64C75.2125 56.9918 75.8611 55.2787 76.6187 53.5363C77.708 55.5764 78.8974 57.5657 80.1811 59.4966ZM88.9249 66.504C87.7177 65.2408 86.5136 63.8439 85.3375 62.3413C87.6987 62.4313 90.0644 62.4315 92.4252 62.3293C91.2642 63.8593 90.0918 65.2582 88.9249 66.504ZM101.082 53.4475C101.879 55.2088 102.551 56.9127 103.085 58.533C101.356 58.9155 99.4892 59.2236 97.5225 59.4523C98.7932 57.4991 99.9854 55.4975 101.082 53.4475ZM94.2861 59.7516C90.6746 60.0018 87.0403 59.9992 83.4275 59.7721C81.3746 56.8646 79.5473 53.8068 77.9698 50.6325C79.5395 47.4646 81.3537 44.4129 83.3969 41.51C87.0125 41.245 90.6501 41.2443 94.2655 41.5115C96.2911 44.4143 98.1025 47.4581 99.7087 50.5974C98.1216 53.7637 96.298 56.8215 94.2861 59.7516ZM102.401 27.6985C106.118 29.7773 104.464 37.1603 103.652 40.3707C101.178 39.8173 98.4917 39.4053 95.6793 39.1495C94.0409 36.8876 92.3434 34.8308 90.6393 33.0506C93.1378 30.7152 98.7198 25.6401 102.401 27.6985Z" fill="#53C1DE"></path><path d="M383.663 17.4282C382.252 16.6348 380.413 16.6384 379.001 17.4282C371.929 21.3307 364.858 25.2344 357.785 29.1351C356.409 29.8591 355.48 31.3371 355.495 32.8712V56.4506C355.485 58.0145 356.461 59.5068 357.873 60.2209C359.905 61.3017 361.879 62.4922 363.947 63.5011C366.336 64.675 369.325 64.9346 371.743 63.7104C373.706 62.6956 374.578 60.4389 374.576 58.365C374.591 50.5831 374.578 42.8011 374.582 35.0192C374.628 34.6734 374.369 34.3037 373.992 34.3121C373.088 34.2978 372.183 34.3037 371.279 34.3097C370.938 34.2774 370.604 34.561 370.63 34.9043C370.618 42.636 370.633 50.37 370.623 58.1029C370.643 59.1726 369.92 60.2007 368.889 60.562C366.508 61.3965 359.713 56.9841 359.713 56.9841C359.463 56.8686 359.305 56.5981 359.329 56.3295C359.329 48.55 359.33 40.7703 359.329 32.9921C359.295 32.6785 359.488 32.3961 359.776 32.268C366.824 28.3885 373.869 24.4993 380.917 20.6174C381.162 20.454 381.503 20.4545 381.748 20.6186C388.796 24.4993 395.842 28.385 402.891 32.2647C403.18 32.3925 403.365 32.6797 403.336 32.9921C403.334 40.7703 403.338 48.55 403.333 56.3283C403.354 56.6036 403.212 56.8703 402.955 56.9912C395.972 60.8497 388.91 64.5837 381.991 68.5543C381.689 68.7275 381.347 68.9237 381.009 68.7329C379.19 67.7264 377.392 66.6807 375.579 65.6646C375.381 65.5415 375.13 65.4888 374.925 65.6263C374.111 66.0548 373.347 66.4019 372.413 66.7715C371.102 67.2907 371.311 67.503 372.494 68.192C374.615 69.3923 376.739 70.5878 378.86 71.7893C380.256 72.6606 382.132 72.7226 383.573 71.9173C390.646 68.0198 397.716 64.1174 404.79 60.2199C406.199 59.5018 407.179 58.0155 407.17 56.4504V32.8712C407.183 31.3682 406.29 29.9166 404.956 29.1819C397.86 25.2604 390.76 21.3473 383.663 17.4282Z" fill="#8CC84B"></path><path d="M394.334 35.1317C391.558 33.6467 388.256 33.5676 385.171 33.7616C382.943 33.9818 380.599 34.5968 378.975 36.1943C377.31 37.8003 376.947 40.3935 377.738 42.49C378.305 43.9713 379.732 44.9347 381.208 45.4443C383.108 46.1152 385.104 46.3227 387.101 46.5302C388.923 46.7195 390.745 46.9089 392.495 47.45C393.21 47.6871 394.043 48.0496 394.262 48.8275C394.464 49.7489 394.243 50.82 393.494 51.4601C391.118 53.341 384.508 53.0528 382.16 51.5725C381.211 50.9419 380.802 49.8254 380.636 48.7617C380.617 48.4301 380.35 48.1261 379.99 48.1513C379.089 48.1406 378.188 48.1429 377.287 48.1501C376.972 48.1237 376.645 48.3475 376.628 48.6684C376.443 53.541 380.918 55.6652 385.116 56.133C387.515 56.3615 389.967 56.3485 392.329 55.8338C394.104 55.4294 395.885 54.685 397.107 53.3172C398.614 51.6552 398.91 49.1805 398.235 47.1101C397.718 45.5654 396.241 44.5744 394.731 44.0646C392.678 43.3607 390.245 42.9823 388.386 42.8052C385.683 42.5477 382.471 42.6529 381.706 40.8769C381.401 39.9469 381.661 38.7922 382.515 38.2202C384.776 36.6864 389.378 36.8901 391.72 38.0359C392.795 38.5744 393.418 39.6801 393.676 40.7966C393.723 41.1246 393.944 41.4667 394.323 41.4524C395.218 41.4703 396.114 41.4572 397.009 41.4584C397.316 41.48 397.653 41.3063 397.713 40.9916C397.675 38.6582 396.483 36.2698 394.334 35.1317Z" fill="#8CC84B"></path><circle cx="257.501" cy="440.684" r="27.8248" fill="#028CB0"></circle><path d="M238.531 440.684C238.531 448.201 242.904 454.676 249.227 457.754L240.179 432.965C239.093 435.393 238.531 438.024 238.531 440.684ZM257.501 459.654C259.704 459.654 261.823 459.267 263.807 458.578L263.673 458.325L257.837 442.349L252.153 458.88C253.835 459.385 255.634 459.654 257.501 459.654ZM260.108 431.788L266.969 452.187L268.869 445.864C269.677 443.24 270.299 441.357 270.299 439.726C270.299 437.371 269.458 435.757 268.752 434.512C267.776 432.931 266.885 431.603 266.885 430.056C266.885 428.307 268.197 426.692 270.08 426.692H270.316C266.82 423.483 262.246 421.706 257.501 421.714C254.359 421.714 251.267 422.494 248.501 423.985C245.736 425.477 243.385 427.632 241.659 430.257L242.87 430.291C244.854 430.291 247.915 430.039 247.915 430.039C248.958 429.988 249.076 431.485 248.05 431.603C248.05 431.603 247.024 431.737 245.864 431.788L252.792 452.338L256.946 439.894L253.986 431.788C253.323 431.751 252.661 431.695 252.002 431.62C250.976 431.552 251.094 429.988 252.12 430.039C252.12 430.039 255.248 430.291 257.114 430.291C259.099 430.291 262.159 430.039 262.159 430.039C263.185 429.988 263.32 431.485 262.294 431.603C262.294 431.603 261.268 431.721 260.108 431.788ZM267.036 457.081C269.906 455.412 272.288 453.02 273.943 450.142C275.599 447.265 276.47 444.004 276.471 440.684C276.471 437.388 275.63 434.294 274.15 431.586C274.451 434.565 274 437.571 272.838 440.331L267.036 457.081ZM257.501 462.546C251.703 462.546 246.142 460.243 242.042 456.143C237.942 452.043 235.639 446.482 235.639 440.684C235.639 434.886 237.942 429.325 242.042 425.225C246.142 421.125 251.703 418.822 257.501 418.822C263.299 418.822 268.86 421.125 272.96 425.225C277.06 429.325 279.363 434.886 279.363 440.684C279.363 446.482 277.06 452.043 272.96 456.143C268.86 460.243 263.299 462.546 257.501 462.546Z" fill="white"></path><path d="M329.756 261.623L357.581 309.323L385.405 261.623H374.474L357.581 290.442L340.687 261.623H329.756Z" fill="#41B883"></path><path d="M340.687 261.623L357.58 290.442L374.474 261.623H364.536L357.71 273.573L350.624 261.623H340.687Z" fill="#35495E"></path><path d="M161.805 153.479C162.18 152.807 162.412 152.05 162.412 151.37V127.764C162.412 127.084 162.18 126.327 161.806 125.655L138.562 139.567L161.805 153.479Z" fill="#00599C"></path><path d="M140.626 166.882L160.345 155.08C160.913 154.74 161.429 154.152 161.803 153.48L138.56 139.568L115.317 153.48C115.692 154.152 116.208 154.74 116.776 155.08L136.495 166.882C137.631 167.563 139.49 167.563 140.626 166.882Z" fill="#004482"></path><path d="M161.805 125.655C161.43 124.983 160.914 124.396 160.346 124.056L140.627 112.253C139.491 111.573 137.632 111.573 136.496 112.253L116.777 124.056C115.641 124.735 114.712 126.405 114.712 127.764V151.37C114.712 152.05 114.944 152.808 115.319 153.48L138.562 139.567L161.805 125.655Z" fill="#659AD2"></path><path d="M138.639 155.468C129.829 155.468 122.662 148.335 122.662 139.568C122.662 130.801 129.829 123.668 138.639 123.668C144.218 123.668 149.428 126.601 152.313 131.343L145.472 135.447C144.026 133.081 141.424 131.618 138.639 131.618C134.234 131.618 130.65 135.184 130.65 139.568C130.65 143.951 134.234 147.518 138.639 147.518C141.416 147.518 144.012 146.063 145.46 143.708L152.316 147.788C149.432 152.533 144.22 155.468 138.639 155.468Z" fill="white"></path><path d="M152.474 138.563H150.487V136.586H148.499V138.563H146.512V140.541H148.499V142.518H150.487V140.541H152.474V138.563Z" fill="white"></path><path d="M160.424 138.574H158.437V136.586H156.45V138.574H154.462V140.561H156.45V142.549H158.437V140.561H160.424V138.574Z" fill="white"></path><path d="M259.543 46.6444C259.917 45.9723 260.15 45.215 260.15 44.535V20.9291C260.15 20.2491 259.917 19.4919 259.543 18.8198L236.3 32.7321L259.543 46.6444Z" fill="#7F3A86"></path><path d="M238.363 60.047L258.082 48.2442C258.65 47.9042 259.166 47.317 259.541 46.6447L236.298 32.7324L213.055 46.6449C213.429 47.317 213.945 47.9043 214.513 48.2442L234.232 60.047C235.368 60.7271 237.227 60.7271 238.363 60.047Z" fill="#662579"></path><path d="M259.542 18.8195C259.168 18.1472 258.651 17.5601 258.083 17.2201L238.364 5.41726C237.229 4.73722 235.37 4.73722 234.234 5.41726L214.515 17.2201C213.379 17.9 212.449 19.5691 212.449 20.929V44.5349C212.449 45.2149 212.682 45.9722 213.056 46.6443L236.299 32.732L259.542 18.8195Z" fill="#9A5196"></path><path d="M236.377 48.6323C227.567 48.6323 220.4 41.4996 220.4 32.7324C220.4 23.9652 227.567 16.8325 236.377 16.8325C241.956 16.8325 247.167 19.7654 250.052 24.5078L243.21 28.6113C241.764 26.2452 239.162 24.7825 236.377 24.7825C231.972 24.7825 228.389 28.3487 228.389 32.7324C228.389 37.1159 231.972 40.6823 236.377 40.6823C239.155 40.6823 241.75 39.2277 243.198 36.8728L250.055 40.9524C247.17 45.6976 241.958 48.6323 236.377 48.6323Z" fill="white"></path><path fill-rule="evenodd" clip-rule="evenodd" d="M254.186 26.7695V28.7518H250.211V26.7695H248.224V28.7518H246.236V30.7445H248.224V34.7091H246.236V36.707H248.224V38.6944H250.211L250.211 36.707H254.186V38.6944H256.174V36.707H258.161V34.7194H256.174V30.7445H258.161V28.7518H256.174V26.7695H254.186ZM254.186 34.7194V30.7445H250.211V34.7091L254.186 34.7194Z" fill="white"></path><defs><linearGradient id="paint0_linear_1493_8477" x1="201.932" y1="223.649" x2="181.705" y2="243.876" gradientUnits="userSpaceOnUse"><stop stop-color="#00AEEF"></stop><stop offset="1" stop-color="#2B3990"></stop></linearGradient><linearGradient id="paint1_linear_1493_8477" x1="22.6709" y1="182.587" x2="22.6709" y2="225.611" gradientUnits="userSpaceOnUse"><stop stop-color="#327EBD"></stop><stop offset="1" stop-color="#1565A7"></stop></linearGradient><linearGradient id="paint2_linear_1493_8477" x1="37.2725" y1="197.646" x2="37.2725" y2="240.67" gradientUnits="userSpaceOnUse"><stop stop-color="#FFDA4B"></stop><stop offset="1" stop-color="#F9C600"></stop></linearGradient><linearGradient id="paint3_linear_1493_8477" x1="325.695" y1="150.074" x2="316.942" y2="134.661" gradientUnits="userSpaceOnUse"><stop stop-color="#FB7655"></stop><stop offset="0.41" stop-color="#E42B1E"></stop><stop offset="0.99" stop-color="#990000"></stop><stop offset="1" stop-color="#990000"></stop></linearGradient><linearGradient id="paint4_linear_1493_8477" x1="330.042" y1="137.109" x2="318.788" y2="129.578" gradientUnits="userSpaceOnUse"><stop stop-color="#871101"></stop><stop offset="0.99" stop-color="#911209"></stop><stop offset="1" stop-color="#911209"></stop></linearGradient><linearGradient id="paint5_linear_1493_8477" x1="321.051" y1="150.541" x2="309.798" y2="143.01" gradientUnits="userSpaceOnUse"><stop stop-color="#871101"></stop><stop offset="0.99" stop-color="#911209"></stop><stop offset="1" stop-color="#911209"></stop></linearGradient><linearGradient id="paint6_linear_1493_8477" x1="297.462" y1="131.637" x2="299.213" y2="142.986" gradientUnits="userSpaceOnUse"><stop stop-color="white"></stop><stop offset="0.23" stop-color="#E57252"></stop><stop offset="0.46" stop-color="#DE3B20"></stop><stop offset="0.99" stop-color="#A60003"></stop><stop offset="1" stop-color="#A60003"></stop></linearGradient><linearGradient id="paint7_linear_1493_8477" x1="320.072" y1="110.332" x2="322.003" y2="118.631" gradientUnits="userSpaceOnUse"><stop stop-color="white"></stop><stop offset="0.18" stop-color="#E46342"></stop><stop offset="0.4" stop-color="#C82410"></stop><stop offset="0.99" stop-color="#A80D00"></stop><stop offset="1" stop-color="#A80D00"></stop></linearGradient><linearGradient id="paint8_linear_1493_8477" x1="314.209" y1="107.408" x2="322.496" y2="103.275" gradientUnits="userSpaceOnUse"><stop stop-color="white"></stop><stop offset="0.54" stop-color="#C81F11"></stop><stop offset="0.99" stop-color="#BF0905"></stop><stop offset="1" stop-color="#BF0905"></stop></linearGradient><linearGradient id="paint9_linear_1493_8477" x1="290.207" y1="128.743" x2="290.892" y2="135.583" gradientUnits="userSpaceOnUse"><stop stop-color="white"></stop><stop offset="0.31" stop-color="#DE4024"></stop><stop offset="0.99" stop-color="#BF190B"></stop><stop offset="1" stop-color="#BF190B"></stop></linearGradient><linearGradient id="paint10_linear_1493_8477" x1="309.443" y1="121.038" x2="310.088" y2="132.622" gradientUnits="userSpaceOnUse"><stop stop-color="white"></stop><stop offset="0.23" stop-color="#E4714E"></stop><stop offset="0.56" stop-color="#BE1A0D"></stop><stop offset="0.99" stop-color="#A80D00"></stop><stop offset="1" stop-color="#A80D00"></stop></linearGradient><linearGradient id="paint11_linear_1493_8477" x1="285.522" y1="137.433" x2="317.642" y2="104.496" gradientUnits="userSpaceOnUse"><stop stop-color="#BD0012"></stop><stop offset="0.07" stop-color="white"></stop><stop offset="0.17" stop-color="white"></stop><stop offset="0.27" stop-color="#C82F1C"></stop><stop offset="0.33" stop-color="#820C01"></stop><stop offset="0.46" stop-color="#A31601"></stop><stop offset="0.72" stop-color="#B31301"></stop><stop offset="0.99" stop-color="#E82609"></stop><stop offset="1" stop-color="#E82609"></stop></linearGradient><linearGradient id="paint12_linear_1493_8477" x1="310.056" y1="140.764" x2="300.406" y2="138.389" gradientUnits="userSpaceOnUse"><stop stop-color="#8C0C01"></stop><stop offset="0.54" stop-color="#990C00"></stop><stop offset="0.99" stop-color="#A80D0E"></stop><stop offset="1" stop-color="#A80D0E"></stop></linearGradient><linearGradient id="paint13_linear_1493_8477" x1="326.624" y1="129.153" x2="318.033" y2="121.474" gradientUnits="userSpaceOnUse"><stop stop-color="#7E110B"></stop><stop offset="0.99" stop-color="#9E0C00"></stop><stop offset="1" stop-color="#9E0C00"></stop></linearGradient><linearGradient id="paint14_linear_1493_8477" x1="329.775" y1="115.02" x2="325.493" y2="110.455" gradientUnits="userSpaceOnUse"><stop stop-color="#79130D"></stop><stop offset="0.99" stop-color="#9E120B"></stop><stop offset="1" stop-color="#9E120B"></stop></linearGradient><radialGradient id="paint15_radial_1493_8477" cx="0" cy="0" r="1" gradientUnits="userSpaceOnUse" gradientTransform="translate(319.39 121.597) scale(10.5025 10.5317)"><stop stop-color="#A80D00"></stop><stop offset="0.99" stop-color="#7E0E08"></stop><stop offset="1" stop-color="#7E0E08"></stop></radialGradient><radialGradient id="paint16_radial_1493_8477" cx="0" cy="0" r="1" gradientUnits="userSpaceOnUse" gradientTransform="translate(304.845 135.476) scale(13.9617 14.0005)"><stop stop-color="#A30C00"></stop><stop offset="0.99" stop-color="#800E08"></stop><stop offset="1" stop-color="#800E08"></stop></radialGradient><linearGradient id="paint17_linear_1493_8477" x1="294.954" y1="146.265" x2="291.458" y2="134.434" gradientUnits="userSpaceOnUse"><stop stop-color="#8B2114"></stop><stop offset="0.43" stop-color="#9E100A"></stop><stop offset="0.99" stop-color="#B3100C"></stop><stop offset="1" stop-color="#B3100C"></stop></linearGradient><linearGradient id="paint18_linear_1493_8477" x1="321.647" y1="107.043" x2="329.454" y2="110.48" gradientUnits="userSpaceOnUse"><stop stop-color="#B31000"></stop><stop offset="0.44" stop-color="#910F08"></stop><stop offset="0.99" stop-color="#791C12"></stop><stop offset="1" stop-color="#791C12"></stop></linearGradient></defs></svg>